<?xml version="1.0" standalone="no"?>
<!DOCTYPE svg PUBLIC "-//W3C//DTD SVG 20010904//EN"
 "http://www.w3.org/TR/2001/REC-SVG-20010904/DTD/svg10.dtd">
<svg version="1.0" xmlns="http://www.w3.org/2000/svg"
 width="6030.000000pt" height="1809.000000pt" viewBox="0 0 6030.000000 1809.000000"
 preserveAspectRatio="xMidYMid meet">

<g transform="translate(0.000000,1809.000000) scale(0.100000,-0.100000)"
fill="#000000" stroke="none">
<path d="M11840 16260 c0 -5 5 -10 11 -10 5 0 7 5 4 10 -3 6 -8 10 -11 10 -2
0 -4 -4 -4 -10z"/>
<path d="M11783 16238 c-12 -13 -99 -142 -195 -288 -96 -146 -399 -602 -673
-1015 -546 -824 -885 -1334 -1683 -2540 -292 -440 -659 -993 -815 -1230 -1441
-2173 -2672 -4037 -2690 -4070 -31 -61 -35 -174 -8 -246 27 -72 84 -136 152
-174 l54 -30 3600 0 3600 0 57 28 c115 56 8 -160 1116 2262 121 264 304 663
406 888 103 224 184 411 182 416 -3 5 0 11 8 14 16 6 29 47 14 47 -5 0 -6 5
-3 10 4 6 1 9 -5 8 -7 -2 -14 5 -15 15 -4 21 -31 84 -46 107 -5 8 -12 23 -15
33 -4 9 -10 17 -15 17 -5 0 -9 11 -9 25 0 14 -4 25 -10 25 -5 0 -10 7 -10 15
0 8 -4 15 -8 15 -5 0 -19 24 -32 53 -13 28 -26 54 -30 57 -3 3 -17 28 -30 55
-13 28 -31 59 -40 70 -10 11 -28 48 -40 83 -13 34 -27 65 -31 68 -4 2 -6 12
-3 22 5 14 4 14 -4 3 -8 -12 -14 -6 -27 27 -10 23 -25 58 -35 78 -11 20 -16
43 -13 52 4 14 3 14 -5 3 -8 -11 -14 -4 -29 30 -11 24 -31 61 -45 81 -14 21
-29 54 -32 74 -4 20 -18 48 -32 63 -13 14 -24 32 -24 39 0 7 -5 18 -10 25 -40
47 -50 61 -50 70 0 16 -51 119 -66 135 -8 7 -14 21 -14 30 0 9 -9 28 -20 42
-11 14 -20 32 -20 41 0 9 -9 26 -19 38 -11 13 -23 35 -26 51 -3 16 -13 34 -21
41 -8 6 -14 19 -14 29 0 9 -9 27 -20 40 -11 13 -20 31 -20 40 0 10 -6 23 -14
29 -8 7 -18 25 -21 41 -6 25 -14 39 -55 87 -5 7 -10 16 -10 21 0 10 -26 69
-41 92 -5 8 -12 23 -15 33 -4 9 -10 17 -15 17 -5 0 -9 6 -9 13 0 22 -24 67
-37 67 -6 0 -14 18 -18 40 -4 22 -11 40 -16 40 -5 0 -9 7 -9 15 0 19 -21 58
-37 68 -7 4 -13 13 -13 19 0 6 -15 34 -34 62 -18 28 -37 66 -41 84 -3 18 -17
45 -29 60 -12 15 -33 52 -45 82 -13 30 -27 60 -32 66 -5 6 -7 20 -3 30 5 15 4
16 -4 4 -9 -12 -12 -10 -20 10 -31 79 -53 121 -61 116 -5 -3 -15 17 -21 46 -7
29 -22 61 -32 73 -27 28 -45 64 -53 108 -4 21 -13 37 -21 37 -7 0 -25 27 -41
60 -15 33 -30 60 -34 60 -4 0 -15 23 -24 50 -9 28 -21 50 -26 50 -5 0 -9 8 -9
18 0 11 -9 29 -19 41 -11 13 -23 35 -26 51 -3 16 -13 34 -21 41 -8 6 -14 19
-14 29 0 9 -9 27 -20 40 -11 13 -20 31 -20 40 0 10 -6 23 -14 29 -8 7 -18 25
-21 41 -3 16 -15 38 -26 51 -10 12 -19 28 -19 36 0 12 -12 34 -58 108 -7 11
-15 28 -18 38 -4 9 -10 17 -15 17 -5 0 -9 6 -9 13 0 14 -24 70 -41 97 -5 8
-12 23 -15 33 -4 9 -10 17 -15 17 -5 0 -9 11 -9 25 0 14 -4 25 -10 25 -5 0
-10 7 -10 15 0 8 -4 15 -8 15 -5 0 -19 24 -32 53 -13 28 -26 54 -30 57 -3 3
-17 28 -30 55 -13 28 -31 59 -40 70 -10 11 -28 48 -40 83 -13 34 -27 65 -31
68 -4 2 -6 12 -3 22 5 14 4 14 -4 3 -8 -12 -14 -6 -27 27 -10 23 -25 58 -35
78 -11 20 -16 43 -13 52 4 14 3 14 -5 3 -8 -12 -14 -6 -27 27 -10 23 -21 42
-26 42 -5 0 -9 7 -9 15 0 8 -4 15 -8 15 -8 0 -42 91 -42 112 0 5 -11 21 -25
36 -14 15 -33 44 -42 65 -9 20 -20 37 -24 37 -4 0 -13 17 -20 38 -15 46 -49
113 -66 130 -7 7 -13 22 -13 33 0 10 -3 19 -8 19 -7 0 -25 37 -37 78 -3 12
-10 22 -15 22 -5 0 -15 18 -21 40 -7 22 -18 45 -26 51 -7 6 -13 19 -13 29 0 9
-9 27 -20 40 -11 13 -20 31 -20 40 0 10 -6 23 -14 29 -8 7 -18 25 -21 41 -6
25 -14 39 -55 87 -5 7 -10 16 -10 21 0 10 -26 69 -41 92 -5 8 -12 23 -15 33
-4 9 -10 18 -15 18 -5 1 -13 2 -18 3 -5 0 -13 4 -17 8 -4 4 -14 2 -22 -5 -11
-8 -14 -8 -9 0 4 6 1 13 -5 16 -10 3 -10 8 1 18 8 8 11 9 7 2 -3 -6 -2 -14 3
-17 14 -9 21 20 8 34 -9 10 -9 11 1 6 7 -4 12 -1 12 8 0 21 -3 20 -27 -6z
m3114 -5958 c-1 -21 -10 -18 -13 5 -1 8 2 15 6 15 5 0 8 -9 7 -20z"/>
<path d="M11824 16232 c-12 -7 -11 -39 2 -50 4 -4 4 0 2 8 -3 8 -1 23 4 33 10
19 8 20 -8 9z"/>
<path d="M25205 14612 c-102 -36 -179 -107 -229 -212 l-21 -45 -3 -3062 c-2
-3049 -2 -3062 18 -3116 28 -74 79 -130 152 -166 l61 -31 654 0 653 0 0 925 0
925 708 0 708 0 566 -818 c446 -644 580 -831 630 -877 69 -64 188 -127 271
-145 35 -7 288 -9 760 -8 l708 3 -742 1063 c-408 585 -740 1064 -738 1066 2 2
68 36 146 75 686 347 1085 908 1195 1681 17 127 17 573 0 700 -38 271 -105
497 -211 715 -329 675 -969 1115 -1861 1279 -336 62 -277 60 -1895 63 -1390 3
-1483 2 -1530 -15z m2889 -1256 c607 -95 936 -370 1044 -870 24 -116 24 -418
-1 -536 -104 -482 -418 -756 -989 -861 -120 -23 -142 -23 -890 -27 l-768 -3 0
1161 0 1161 748 -4 c643 -3 762 -6 856 -21z"/>
<path d="M31700 11305 l0 -3325 770 0 770 0 2 1363 3 1362 1510 0 1510 0 3
-1362 2 -1363 770 0 770 0 0 3325 0 3325 -770 0 -770 0 0 -1310 0 -1310 -1515
0 -1515 0 0 1310 0 1310 -770 0 -770 0 0 -3325z"/>
<path d="M39150 11305 l0 -3325 2575 0 2575 0 0 615 0 615 -1810 0 -1810 0 0
770 0 770 1545 0 1545 0 0 600 0 600 -1545 0 -1545 0 0 725 0 725 1750 0 1750
0 0 615 0 615 -2515 0 -2515 0 0 -3325z"/>
<path d="M45758 14615 c-175 -43 -333 -176 -410 -344 -62 -134 -58 70 -58
-3252 l0 -3040 1723 4 c1219 3 1748 7 1812 15 432 55 727 121 1022 228 938
340 1603 978 1932 1855 90 243 161 557 192 854 18 177 16 598 -5 778 -64 561
-229 1028 -511 1452 -490 733 -1313 1233 -2308 1400 -361 60 -293 58 -1877 61
-1223 2 -1464 1 -1512 -11z m2703 -1255 c527 -41 963 -206 1308 -495 289 -243
499 -597 594 -1000 45 -192 60 -331 60 -560 0 -229 -15 -368 -60 -560 -187
-796 -780 -1324 -1645 -1465 -218 -36 -384 -41 -1148 -38 l-735 3 -3 2050 c-1
1128 0 2056 3 2063 6 15 1421 17 1626 2z"/>
<path d="M52910 11305 l0 -3325 2575 0 2575 0 0 615 0 615 -1807 2 -1808 3 -3
768 -2 767 1545 0 1545 0 0 600 0 600 -1545 0 -1545 0 2 723 3 722 1748 3
1747 2 0 615 0 615 -2515 0 -2515 0 0 -3325z"/>
<path d="M14926 10365 c5 -11 2 -14 -10 -9 -9 3 -16 2 -16 -4 0 -13 33 -8 37
5 2 6 -1 14 -6 18 -7 3 -8 0 -5 -10z"/>
<path d="M15466 9264 c1 -6 -7 -19 -18 -29 -16 -13 -18 -19 -8 -25 10 -6 10
-12 0 -26 -11 -18 -11 -18 -6 0 5 15 4 17 -8 7 -13 -11 -26 -44 -25 -65 1 -5
-4 -12 -9 -15 -5 -3 -57 -109 -115 -236 -58 -126 -122 -266 -142 -310 -88
-190 -161 -349 -460 -1000 -175 -379 -379 -823 -453 -985 l-136 -295 0 -85 c0
-67 4 -94 21 -128 66 -132 2614 -4531 2646 -4567 21 -24 63 -56 95 -72 l57
-28 1308 -3 c1287 -2 1307 -2 1307 17 0 11 3 28 6 38 4 13 3 14 -4 5 -7 -10
-17 3 -40 52 -17 36 -35 66 -40 66 -6 0 -16 23 -22 51 -7 29 -22 63 -34 76
-22 25 -33 45 -100 179 -21 43 -45 84 -52 91 -7 7 -15 26 -19 42 -3 16 -13 35
-21 42 -8 6 -14 19 -14 29 0 9 -9 27 -19 39 -11 13 -23 35 -26 51 -3 16 -13
34 -21 41 -8 6 -14 19 -14 29 0 9 -9 27 -20 40 -11 13 -20 31 -20 40 0 10 -6
23 -14 29 -8 7 -18 25 -21 41 -3 16 -15 38 -26 51 -10 12 -19 28 -19 36 0 12
-12 34 -58 108 -7 11 -15 28 -18 38 -4 9 -10 17 -15 17 -5 0 -9 6 -9 13 0 14
-24 70 -41 97 -5 8 -12 23 -15 33 -4 9 -10 17 -15 17 -5 0 -9 7 -9 15 0 15
-19 55 -31 65 -3 3 -19 32 -36 65 -54 109 -76 150 -93 170 -9 11 -27 45 -39
75 -13 30 -27 60 -32 66 -5 6 -7 20 -3 30 5 15 4 16 -4 5 -8 -12 -14 -6 -27
27 -10 23 -25 58 -35 78 -11 20 -16 43 -13 52 3 12 2 13 -4 4 -7 -9 -16 1 -33
35 -13 26 -34 62 -46 80 -12 18 -25 49 -28 69 -4 20 -18 48 -32 63 -13 14 -32
43 -41 64 -9 20 -20 37 -24 37 -4 0 -13 17 -20 38 -15 45 -49 112 -65 129 -7
7 -15 26 -19 42 -3 16 -13 35 -21 42 -8 6 -14 19 -14 29 0 9 -9 27 -19 39 -11
13 -23 35 -26 51 -3 16 -13 34 -21 41 -8 6 -14 19 -14 29 0 9 -9 27 -20 40
-11 13 -20 31 -20 41 0 10 -5 21 -10 24 -6 3 -20 27 -33 52 -37 75 -41 83 -49
83 -5 0 -8 6 -8 13 0 14 -24 70 -41 97 -5 8 -12 23 -15 33 -4 9 -10 17 -15 17
-5 0 -9 11 -9 25 0 14 -4 25 -10 25 -5 0 -10 7 -10 15 0 8 -6 15 -14 15 -9 0
-17 15 -21 40 -4 22 -11 40 -16 40 -5 0 -9 7 -9 15 0 15 -19 55 -31 65 -4 3
-9 15 -13 28 -4 12 -13 22 -19 22 -12 0 -26 25 -58 109 -25 65 -47 107 -64
121 -8 7 -15 18 -15 24 0 7 -9 29 -19 50 -11 21 -17 45 -14 54 4 13 3 14 -5 4
-7 -10 -17 3 -40 52 -17 36 -35 66 -40 66 -6 0 -16 23 -22 51 -7 29 -22 63
-34 76 -22 25 -33 45 -100 179 -21 43 -45 84 -52 92 -8 7 -14 18 -14 24 0 16
-50 120 -65 135 -8 7 -16 26 -20 42 -3 16 -13 35 -21 42 -8 6 -14 19 -14 29 0
9 -9 27 -20 40 -11 13 -20 31 -20 40 0 10 -6 23 -14 29 -8 7 -18 25 -21 41 -3
16 -15 38 -26 51 -10 12 -19 28 -19 36 0 12 -12 34 -58 108 -7 11 -15 28 -18
38 -4 9 -10 17 -15 17 -5 0 -9 6 -9 13 0 14 -24 70 -41 97 -5 8 -12 23 -15 33
-4 9 -10 17 -15 17 -5 0 -9 7 -9 15 0 15 -19 56 -31 65 -4 3 -17 28 -30 55
-12 28 -26 52 -29 55 -4 3 -17 28 -30 55 -13 28 -31 59 -40 70 -9 11 -27 45
-39 75 -13 30 -27 60 -32 66 -5 6 -7 20 -3 30 5 15 4 16 -4 5 -8 -12 -14 -6
-27 27 -10 23 -25 58 -35 78 -11 20 -16 43 -13 52 4 14 3 14 -5 3 -8 -11 -14
-4 -29 30 -11 24 -31 61 -45 81 -14 21 -29 54 -32 74 -4 20 -18 48 -32 63 -13
14 -32 43 -41 64 -9 20 -20 37 -24 37 -4 0 -13 17 -20 38 -15 45 -49 112 -65
129 -7 7 -15 26 -19 42 -3 16 -13 35 -21 42 -8 6 -14 19 -14 29 0 9 -9 27 -19
39 -11 13 -23 35 -26 51 -3 16 -13 34 -21 41 -8 6 -14 19 -14 29 0 9 -9 27
-20 40 -11 13 -20 31 -20 40 0 10 -6 23 -14 29 -8 7 -18 25 -21 41 -6 25 -14
39 -55 87 -5 7 -10 16 -10 21 0 10 -26 69 -41 92 -5 8 -12 23 -15 33 -4 9 -10
17 -15 17 -5 0 -9 11 -9 25 0 14 -4 25 -10 25 -5 0 -10 7 -10 15 0 8 -6 15
-14 15 -9 0 -17 15 -21 40 -4 22 -11 40 -16 40 -5 0 -9 7 -9 15 0 19 -21 58
-37 68 -7 4 -13 14 -13 22 0 7 -11 26 -24 42 -12 15 -32 53 -44 83 -27 73 -49
115 -67 130 -8 7 -15 18 -15 24 0 7 -9 29 -19 50 -11 21 -17 45 -14 54 4 14 3
14 -5 3 -8 -11 -14 -6 -26 24 -9 21 -24 44 -34 52 -9 8 -12 12 -7 10 6 -3 18
8 28 25 13 22 14 28 3 19 -8 -6 -16 -8 -18 -4 -3 4 -4 3 -2 -3z"/>
<path d="M4897 5735 c-45 -17 -109 -62 -136 -96 -10 -13 -576 -865 -1257
-1894 -837 -1265 -1244 -1888 -1257 -1925 -50 -144 25 -319 168 -390 l50 -25
6420 0 6420 0 53 24 c69 31 145 114 168 183 22 66 22 170 0 221 -37 89 -2183
3793 -2217 3827 -19 20 -58 47 -85 61 l-49 24 -4120 2 c-3523 1 -4126 0 -4158
-12z"/>
<path d="M34180 5715 c-8 -2 -49 -9 -90 -15 -235 -38 -424 -171 -496 -349 -33
-80 -44 -230 -24 -319 29 -133 114 -236 257 -309 96 -50 186 -79 420 -137 234
-59 311 -88 369 -139 54 -47 74 -88 74 -150 0 -98 -76 -179 -203 -219 -62 -20
-93 -23 -222 -22 -127 1 -164 5 -246 26 -126 34 -237 81 -317 135 -36 24 -66
42 -67 41 -1 -2 -28 -63 -60 -137 l-59 -133 29 -24 c87 -70 277 -146 451 -181
113 -22 405 -25 509 -4 321 63 512 247 531 511 14 181 -57 329 -203 426 -86
57 -204 100 -437 159 -305 78 -361 99 -424 159 -47 43 -64 81 -64 138 0 147
135 242 363 255 165 10 346 -30 507 -111 49 -25 72 -32 75 -23 80 187 106 262
95 270 -7 5 -50 27 -96 48 -89 44 -222 81 -346 98 -69 10 -286 13 -326 6z"/>
<path d="M38235 5710 c-148 -23 -327 -93 -445 -173 -166 -113 -302 -303 -367
-514 -26 -83 -27 -99 -27 -283 0 -184 1 -200 27 -283 83 -269 250 -465 502
-587 171 -84 346 -118 549 -107 176 9 288 37 441 112 186 92 333 239 425 429
74 152 94 246 94 441 -1 139 -4 173 -26 256 -92 342 -350 593 -706 686 -78 20
-127 25 -252 28 -85 2 -182 0 -215 -5z m359 -320 c180 -46 336 -170 414 -330
57 -117 75 -193 75 -320 1 -193 -62 -350 -193 -480 -203 -203 -531 -250 -801
-114 -109 54 -223 171 -277 284 -73 154 -91 316 -52 477 58 244 230 419 472
483 101 26 259 27 362 0z"/>
<path d="M50435 5704 c-403 -72 -692 -333 -792 -714 -32 -122 -36 -339 -9
-465 82 -373 349 -638 743 -737 75 -19 114 -22 268 -22 160 1 190 3 276 26
362 97 617 337 708 668 67 241 43 507 -64 725 -138 278 -397 463 -729 520
-109 18 -294 18 -401 -1z m433 -327 c198 -69 344 -216 409 -410 25 -74 27 -96
27 -227 0 -131 -2 -153 -27 -226 -65 -196 -210 -340 -412 -411 -73 -25 -93
-28 -220 -28 -128 0 -148 3 -228 29 -200 65 -350 214 -414 410 -34 105 -43
290 -20 381 66 258 228 428 474 496 103 29 310 22 411 -14z"/>
<path d="M56946 5709 c-248 -36 -443 -156 -522 -319 -100 -205 -61 -452 91
-586 100 -88 225 -139 524 -214 247 -61 328 -91 386 -142 58 -51 75 -84 75
-148 0 -94 -60 -170 -164 -209 -225 -84 -587 -29 -820 123 l-66 44 -14 -26
c-7 -15 -35 -76 -62 -136 l-48 -109 30 -23 c42 -34 167 -97 252 -128 150 -53
260 -70 467 -70 204 0 271 10 400 59 279 105 423 354 360 623 -19 80 -46 133
-97 188 -96 104 -221 160 -546 244 -302 78 -348 95 -410 154 -47 44 -62 77
-62 139 0 148 132 241 361 254 166 10 341 -28 502 -108 l78 -39 9 25 c5 14 30
75 55 137 36 87 43 113 33 120 -36 26 -182 89 -248 108 -164 46 -403 62 -564
39z"/>
<path d="M24720 5545 l0 -145 315 0 315 0 0 -805 0 -805 175 0 175 0 0 805 0
805 315 0 315 0 0 145 0 145 -805 0 -805 0 0 -145z"/>
<path d="M26810 4740 l0 -950 175 0 175 0 0 275 0 274 248 3 c136 2 252 2 257
0 6 -2 96 -127 200 -278 l190 -274 188 0 c103 0 187 2 187 4 0 3 -94 140 -210
305 -115 164 -210 303 -210 308 0 4 28 23 63 40 142 74 250 197 296 336 41
123 46 307 11 439 -48 178 -209 341 -408 412 -144 51 -205 56 -703 56 l-459 0
0 -950z m960 635 c126 -40 209 -106 252 -200 20 -43 23 -66 23 -160 0 -91 -4
-118 -22 -157 -28 -62 -96 -134 -153 -163 -105 -53 -137 -58 -432 -63 l-278
-4 0 387 0 387 278 -4 c228 -4 287 -8 332 -23z"/>
<path d="M29235 4887 c-198 -441 -390 -868 -427 -949 l-67 -148 182 0 183 0
93 220 94 220 477 0 478 0 72 -167 c40 -93 83 -192 96 -220 l23 -53 184 0 184
0 -427 948 -428 947 -179 2 -178 3 -360 -803z m717 36 c97 -225 174 -411 171
-415 -2 -5 -161 -8 -354 -8 -272 0 -349 3 -349 12 0 17 343 818 351 818 3 0
85 -183 181 -407z"/>
<path d="M31260 4740 l0 -950 175 0 175 0 2 642 3 643 523 -643 523 -642 144
0 145 0 0 950 0 950 -170 0 -170 0 0 -640 c0 -352 -3 -640 -7 -640 -5 1 -242
289 -528 640 l-519 640 -148 0 -148 0 0 -950z"/>
<path d="M35600 4740 l0 -950 175 0 175 0 0 365 0 365 460 0 460 0 0 145 0
145 -457 2 -458 3 -3 293 -2 292 520 0 520 0 0 145 0 145 -695 0 -695 0 0
-950z"/>
<path d="M40030 4741 l0 -951 175 0 175 0 0 275 0 275 240 2 c132 0 245 1 252
2 7 1 99 -124 206 -276 l194 -278 190 0 c151 0 188 3 181 13 -42 53 -425 608
-422 611 2 1 35 18 74 37 47 23 94 58 146 109 124 122 179 261 179 455 0 265
-119 467 -341 578 -179 90 -183 91 -751 95 l-498 3 0 -950z m902 645 c187 -34
295 -130 328 -291 33 -163 -42 -335 -177 -403 -92 -47 -144 -54 -430 -59
l-273 -5 0 386 0 386 238 0 c156 -1 263 -5 314 -14z"/>
<path d="M42230 4740 l0 -950 165 0 165 0 2 622 3 622 310 -511 310 -512 85 0
85 0 295 496 c162 273 303 505 312 517 16 20 17 -12 18 -606 l0 -628 165 0
165 0 0 950 0 951 -147 -3 -148 -3 -366 -623 c-202 -343 -368 -625 -371 -627
-2 -2 -174 279 -381 626 l-378 629 -145 0 -144 0 0 -950z"/>
<path d="M45206 4758 c-231 -513 -423 -941 -428 -950 -8 -17 3 -18 174 -18
l183 0 92 218 91 217 479 3 479 2 95 -220 94 -220 183 0 c100 0 182 3 182 6 0
5 -796 1772 -838 1862 l-16 32 -175 0 -176 0 -419 -932z m777 160 c96 -224
172 -409 169 -412 -7 -8 -697 -8 -704 -1 -3 3 74 192 171 419 97 228 179 411
182 408 4 -4 85 -190 182 -414z"/>
<path d="M47290 4741 l0 -951 484 0 c386 0 501 3 572 15 358 61 621 256 744
553 55 130 73 243 67 417 -5 170 -25 263 -81 382 -122 257 -324 416 -635 501
l-96 26 -527 4 -528 3 0 -950z m937 648 c173 -24 331 -102 428 -212 168 -190
202 -516 79 -759 -59 -117 -186 -227 -324 -281 -120 -46 -166 -51 -475 -52
l-290 0 -3 658 -2 657 254 0 c140 0 290 -5 333 -11z"/>
<path d="M52250 4741 l0 -951 175 0 175 0 0 275 0 275 245 2 c135 0 250 1 256
2 6 1 97 -123 202 -274 l192 -275 192 -3 192 -2 -214 306 c-118 169 -215 310
-215 313 0 3 35 24 77 46 216 110 335 337 319 605 -9 153 -45 255 -129 365
-81 108 -220 192 -389 237 -79 21 -106 22 -580 25 l-498 4 0 -950z m957 636
c170 -50 258 -142 282 -297 18 -108 -8 -216 -72 -302 -33 -45 -116 -95 -197
-120 -71 -22 -91 -23 -345 -23 l-270 0 -3 370 c-1 203 0 376 3 383 8 21 529
11 602 -11z"/>
<path d="M54450 4740 l0 -950 715 0 715 0 0 145 0 145 -537 2 -538 3 0 260 0
260 463 3 462 2 0 145 0 145 -462 2 -463 3 0 245 0 245 518 3 517 2 0 145 0
145 -695 0 -695 0 0 -950z"/>
</g>
</svg>
